<svg width="157" height="88" viewBox="0 0 157 88" fill="none" xmlns="http://www.w3.org/2000/svg">
<g clip-path="url(#clip0)">
<rect width="157" height="88" fill="white"/>
<rect x="0.5" y="0.5" width="156" height="87" stroke="#1390E5"/>
<path fill-rule="evenodd" clip-rule="evenodd" d="M-0.244385 0.436159L52.0889 29.7695L52.4694 29.9827C52.6255 29.6878 52.7864 29.3959 52.952 29.1069L52.5779 28.8972L0.244557 -0.436157L-0.244385 0.436159ZM104.802 28.6846C104.972 28.9708 105.138 29.2602 105.298 29.5525L157.245 0.436159L156.756 -0.436157L104.802 28.6846ZM105.298 58.4476C105.138 58.7398 104.972 59.0292 104.802 59.3154L156.756 88.4362L157.245 87.5638L105.298 58.4476ZM52.952 58.8931C52.7864 58.6041 52.6255 58.3122 52.4694 58.0173L52.0889 58.2305L-0.244385 87.5638L0.244557 88.4362L52.5779 59.1028L52.952 58.8931Z" fill="#1390E5" fill-opacity="0.2"/>
<mask id="mask0" mask-type="alpha" maskUnits="userSpaceOnUse" x="59" y="24" width="40" height="40">
<circle cx="79" cy="44" r="20" fill="#C4C4C4"/>
</mask>
<g mask="url(#mask0)">
<path d="M69.5 50.5C69.5 51.6046 70.3954 52.5 71.5 52.5H73.5V35.5H71.5C70.3954 35.5 69.5 36.3954 69.5 37.5V50.5Z" fill="#1390E5" fill-opacity="0.2"/>
<path d="M88.5 37.5C88.5 36.3954 87.6046 35.5 86.5 35.5H84.5V52.5H86.5C87.6046 52.5 88.5 51.6046 88.5 50.5V37.5Z" fill="#1390E5" fill-opacity="0.2"/>
<path fill-rule="evenodd" clip-rule="evenodd" d="M71.5 36C70.6716 36 70 36.6716 70 37.5V39H73V36H71.5ZM74 36V43.5H84V36H74ZM85 36V39H88V37.5C88 36.6716 87.3284 36 86.5 36H85ZM88 40H85V43.5H88V40ZM88 44.5H85V48H88V44.5ZM88 49H85V52H86.5C87.3284 52 88 51.3284 88 50.5V49ZM84 52V44.5H74V52H84ZM73 52V49H70V50.5C70 51.3284 70.6716 52 71.5 52H73ZM70 48H73V44.5H70V48ZM70 43.5H73V40H70V43.5ZM69 37.5C69 36.1193 70.1193 35 71.5 35H86.5C87.8807 35 89 36.1193 89 37.5V50.5C89 51.8807 87.8807 53 86.5 53H71.5C70.1193 53 69 51.8807 69 50.5V37.5Z" fill="#1390E5"/>
</g>
</g>
<defs>
<clipPath id="clip0">
<rect width="157" height="88" fill="white"/>
</clipPath>
</defs>
</svg>
